<svg xmlns="http://www.w3.org/2000/svg" width="39" height="69"><path fill="#FFF" paint-order="stroke fill markers" fill-rule="evenodd" d="M20.023 20.343c4.11.002 7.254.71 9.541 2.495 4.173 3.256 4.673 9.676 5.725 16.142 2.202 13.535-.615 22.655-10.128 26.56-1.898.78-4.735 1.839-7.78 1.322-7.813-1.326-13-5.768-14.826-13.06-.774-3.091-.656-7.679-.147-11.007 1.926-12.58 1.426-22.553 16-22.452.079-3.392 3.606-5.114 2.642-8.511-1.06-3.743-6.622-3.897-4.99-9.833h.146l1.321.294c-.173 6.214 4.118 4.927 5.138 9.392.886 3.877-2.426 5.302-2.642 8.658zm-1.908 23.92V40.74c-.751-.221-1.4-.613-1.615-1.321V27.533c.232-.712.852-1.092 1.615-1.32v-4.256C6.697 21.834 4.389 30.416 4.023 41.034c4.287 1.33 8.23 3.181 14.092 3.229zm1.761-22.306v4.256c.751.22 1.4.613 1.615 1.32V39.42c-.232.712-.852 1.092-1.615 1.32v3.523c3.55.117 13.621-1.852 14.092-3.962-2.493-10.16-1.01-18.534-14.092-18.344zm-1.468 5.723c-.453.79-.526 10.867 0 11.447h1.468c.036-1.896.43-10.489-.293-11.3l-1.175-.147zm15.56 14.969c-4.626 3.293-15.786 4.26-22.9 2.494l-7.192-2.348C3.686 55.015 5.69 62.06 15.18 64.807c8.145 2.36 15.376-3.054 17.615-8.217.871-2.01.922-3.788 1.32-6.457.283-1.89.562-5.735-.146-7.484z"/></svg>