<svg xmlns="http://www.w3.org/2000/svg" width="74" height="98"><path fill="#FF1E38" paint-order="stroke fill markers" fill-rule="evenodd" d="M25.151 1.902c2.463-.05 4.214 1.116 5.613 2.198.575.445 1.261 1.049 1.43 1.882l.146 10.952.126 7.949-1.093 1.311a7.749 7.749 0 0 1-4.856 2.854c-1.177.193-1.037-.647-1.177-1.522l-.189-3.044-.021-1.079-.273-9.83-.042-2.285-.063-3.932-.042-3.995c0-.27-.086-1.252.02-1.375l.421-.084zm-2.88.084l.799 27.548c-.697.147-1.395.739-1.913 1.12-2.028 1.494-3.822 4.509-2.985 8.352.164.755.313 1.516.589 2.177l4.33 8.52 1.492 2.96c1.82 3.138 3.295 6.5 5.109 9.62 1.424 2.449 2.692 4.967 4.162 7.336.782 1.261 1.511 2.565 2.564 3.552 1.344 1.26 3.724 2.133 6.307 1.48a12.856 12.856 0 0 0 2.438-.866c.172-.083.594-.435.757-.339L67.572 90.55l-.021.042-1.198.74-2.691 1.437c-3.55 1.58-7.366 3.202-11.583 4.06h-1.934c-1.212 0-2.671.125-3.742-.085-5.124-1.004-8.665-2.92-12.213-5.454-5.867-4.19-10.676-9.636-14.988-15.391-2.653-3.541-5.301-7.188-7.673-10.994l-1.597-2.854-1.094-2.39c-1.161-2.686-2.13-5.567-3.027-8.562-1.08-3.61-1.63-7.465-2.417-11.417l-.652-4.905-.504-5.56-.105-2.008-.168-3.277v-.656l-.042-1.818c-.09-.568-.068-1.399.02-1.945l.127-1.692c.24-1.318.425-2.593.862-3.72 2.227-5.757 6.414-9 12.465-10.91 2.002-.632 4.345-1.189 6.874-1.205zm31.364 66.217c2.556-.06 3.92 1.43 5.402 2.494 3.03 2.18 5.854 4.602 8.808 6.85 1.359 1.035 3.402 2.251 3.973 4.018.32.989-.04 1.96-.294 2.769l-1.535 4.863-.084-.085-22.22-17.717.022-.042 5.928-3.15z"/></svg>