<svg xmlns="http://www.w3.org/2000/svg" width="19" height="24"><path fill="#8B8B8B" paint-order="stroke fill markers" fill-rule="evenodd" d="M6.785 1.298c.56-.011.959.251 1.277.494.13.1.287.236.325.424L8.42 4.68l.029 1.788-.249.295a1.766 1.766 0 0 1-1.104.642c-.268.044-.236-.145-.268-.342l-.043-.685-.004-.242-.063-2.213-.01-.513-.013-.885-.01-.9c0-.06-.02-.281.005-.309l.095-.018zm-.655.018l.182 6.199c-.158.033-.317.166-.435.252a1.813 1.813 0 0 0-.679 1.879c.038.17.071.34.134.49l.985 1.916.34.667c.413.706.748 1.462 1.16 2.164.325.551.613 1.118.947 1.65.178.284.344.578.584.8.305.283.846.48 1.434.332.198-.049.384-.113.554-.194.04-.02.135-.098.172-.077l4.924 3.849-.005.01-.273.166-.611.323c-.807.356-1.675.72-2.634.914h-.44c-.276 0-.608.028-.85-.02-1.166-.225-1.971-.656-2.778-1.226-1.334-.944-2.428-2.169-3.408-3.463-.604-.797-1.206-1.618-1.745-2.474l-.363-.642-.249-.538a17.38 17.38 0 0 1-.688-1.926c-.246-.813-.37-1.68-.55-2.569L1.69 8.695l-.115-1.252-.024-.451-.038-.738v-.147l-.01-.41a1.592 1.592 0 0 1 .005-.437l.029-.38c.054-.297.097-.584.196-.838.506-1.295 1.458-2.025 2.834-2.454.456-.142.988-.268 1.563-.272zm7.132 14.899c.582-.013.892.321 1.229.561.69.49 1.331 1.036 2.003 1.542.309.232.773.506.903.903.073.223-.009.442-.067.623l-.349 1.094-.019-.019-5.052-3.986.004-.01 1.348-.708z"/></svg>